<?xml version="1.0" encoding="utf-8"?>
<!-- Generator: Adobe Illustrator 27.6.1, SVG Export Plug-In . SVG Version: 6.00 Build 0)  -->
<svg version="1.1" id="Layer_1" xmlns="http://www.w3.org/2000/svg" xmlns:xlink="http://www.w3.org/1999/xlink" x="0px" y="0px"
	 viewBox="0 0 364.9 108.7" style="enable-background:new 0 0 364.9 108.7;" xml:space="preserve">
<style type="text/css">
	.st0{display:none;}
	.st1{fill:none;}
	.st2{fill-rule:evenodd;clip-rule:evenodd;fill:#4E46DC;}
	.st3{fill:#FFFFFF;}
</style>
<rect x="-87" y="-82.4" class="st0" width="513.9" height="277"/>
<rect id="Artboard3" x="-21.4" y="-14.1" class="st1" width="138.6" height="138.6"/>
<path class="st2" d="M19.8,39l14,8.1l-14.1,8.1v16.3l14.1,8.1L48,71.5V55.3l14-8.1l0,0l0,0v32.4L33.9,95.8L5.8,79.6V47.2
	C5.8,47.2,19.8,39,19.8,39z M34,63.3V30.9L62,14.7l28.1,16.2v32.4l-14.1,8.1l-14-8.1l14.1-8.1V39L62,30.8L47.9,39v16.3
	C47.9,55.3,34,63.3,34,63.3z"/>
<g>
	<path class="st3" d="M115.7,75.9v-7c9.4,0.5,15.8,0.8,19.1,0.8l0,0c0.8,0,1.4-0.2,1.9-0.7c0.5-0.5,0.7-1.1,0.7-1.9l0,0v-4.6h-11.9
		c-3.6,0-6.2-0.8-7.9-2.5c-1.6-1.6-2.4-4.3-2.4-7.9l0,0v-1.5c0-3.6,0.8-6.2,2.4-7.9c1.6-1.6,4.3-2.4,7.9-2.4l0,0h18.1v7.2h-16
		c-2.1,0-3.1,1-3.1,3.1l0,0v1c0,2.1,1,3.1,3.1,3.1l0,0h9.3c3.4,0,5.8,0.8,7.4,2.4c1.6,1.6,2.4,4.1,2.4,7.4l0,0v2.6
		c0,3.4-0.8,5.8-2.4,7.4c-1.6,1.6-4.1,2.4-7.4,2.4l0,0c-1.8,0-3.6,0-5.6-0.1l0,0l-4.7-0.2C123.1,76.5,119.5,76.2,115.7,75.9
		L115.7,75.9z M168.4,69.2v7.2h-18.6v-7.2h4.6V47.5h-4.6v-7.2h18.6v7.2h-4.6v21.7H168.4z M173,40.3h20.1c3.9,0,6.8,1,8.9,3
		c2,2,3,5,3,8.9l0,0v12.4c0,3.9-1,6.8-3,8.8c-2,2-5,3-8.9,3l0,0H173V40.3z M195.7,64.6V52.2c0-3.1-1.5-4.6-4.6-4.6l0,0h-8.8v21.7
		h8.8C194.2,69.2,195.7,67.7,195.7,64.6L195.7,64.6z M238.8,69.2v7.2h-28.6V40.3h28.6v7.2h-19.4v7h15.2v7.2h-15.2v7.5H238.8z
		 M241.9,75.9v-7c9.4,0.5,15.8,0.8,19.2,0.8l0,0c0.8,0,1.4-0.2,1.9-0.7c0.5-0.5,0.7-1.1,0.7-1.9l0,0v-4.6h-11.9
		c-3.6,0-6.2-0.8-7.9-2.5c-1.6-1.6-2.4-4.3-2.4-7.9l0,0v-1.5c0-3.6,0.8-6.2,2.4-7.9c1.6-1.6,4.3-2.4,7.9-2.4l0,0h18.1v7.2h-16
		c-2.1,0-3.1,1-3.1,3.1l0,0v1c0,2.1,1,3.1,3.1,3.1l0,0h9.3c3.4,0,5.8,0.8,7.4,2.4c1.6,1.6,2.4,4.1,2.4,7.4l0,0v2.6
		c0,3.4-0.8,5.8-2.4,7.4s-4.1,2.4-7.4,2.4l0,0c-1.8,0-3.6,0-5.6-0.1l0,0l-4.7-0.2C249.2,76.5,245.6,76.2,241.9,75.9L241.9,75.9z
		 M276,76.4v-7.7h9.3v7.7H276z M320.9,55.8v19.9c-8.1,0.9-15.5,1.3-22.2,1.3l0,0c-3.4,0-5.9-0.8-7.4-2.4c-1.6-1.6-2.4-4.1-2.4-7.4
		l0,0V50.6c0-3.6,0.8-6.2,2.4-7.9c1.6-1.6,4.3-2.4,7.9-2.4l0,0h18.6v7.2h-16.5c-2.1,0-3.1,1-3.1,3.1l0,0v16.5c0,0.8,0.2,1.4,0.7,1.9
		c0.5,0.5,1.1,0.7,1.9,0.7l0,0c4,0,7.6-0.1,10.8-0.3l0,0V62h-6.7v-6.2H320.9z M357,55.8v19.9c-8.1,0.9-15.5,1.3-22.2,1.3l0,0
		c-3.4,0-5.8-0.8-7.4-2.4c-1.6-1.6-2.4-4.1-2.4-7.4l0,0V50.6c0-3.6,0.8-6.2,2.5-7.9c1.6-1.6,4.3-2.4,7.9-2.4l0,0h18.6v7.2h-16.5
		c-2.1,0-3.1,1-3.1,3.1l0,0v16.5c0,0.8,0.2,1.4,0.7,1.9c0.5,0.5,1.1,0.7,1.9,0.7l0,0c4,0,7.6-0.1,10.8-0.3l0,0V62H341v-6.2H357z"/>
</g>
</svg>
